<mxfile host="app.diagrams.net" modified="2021-10-26T09:30:00.407Z" agent="5.0 (Windows NT 10.0; Win64; x64) AppleWebKit/537.36 (KHTML, like Gecko) Chrome/94.0.4606.81 Safari/537.36 OPR/80.0.4170.61" etag="a_cplr51XRNW-VNuU6d3" version="15.5.5" type="github">
  <diagram name="Page-1" id="e7e014a7-5840-1c2e-5031-d8a46d1fe8dd">
    <mxGraphModel dx="1509" dy="836" grid="1" gridSize="10" guides="1" tooltips="1" connect="1" arrows="1" fold="1" page="1" pageScale="1" pageWidth="1169" pageHeight="826" background="none" math="0" shadow="0">
      <root>
        <mxCell id="0" />
        <mxCell id="1" parent="0" />
        <mxCell id="2" value="User" style="swimlane;whiteSpace=wrap;startSize=23;" parent="1" vertex="1">
          <mxGeometry x="164.5" y="128" width="280" height="570" as="geometry" />
        </mxCell>
        <mxCell id="5" value="" style="ellipse;shape=startState;fillColor=#000000;strokeColor=#ff0000;" parent="2" vertex="1">
          <mxGeometry x="120.5" y="40" width="30" height="30" as="geometry" />
        </mxCell>
        <mxCell id="6" value="" style="edgeStyle=elbowEdgeStyle;elbow=horizontal;verticalAlign=bottom;endArrow=open;endSize=8;strokeColor=#FF0000;endFill=1;rounded=0" parent="2" source="5" target="NbnD6St_1m8ua01pVDvT-76" edge="1">
          <mxGeometry x="100" y="40" as="geometry">
            <mxPoint x="115.5" y="110" as="targetPoint" />
          </mxGeometry>
        </mxCell>
        <mxCell id="NbnD6St_1m8ua01pVDvT-76" value="Press Homebutton" style="rounded=1;whiteSpace=wrap;html=1;arcSize=40;fontColor=#000000;fillColor=#ffffc0;strokeColor=#ff0000;" parent="2" vertex="1">
          <mxGeometry x="75.5" y="112" width="120" height="40" as="geometry" />
        </mxCell>
        <mxCell id="3" value="System" style="swimlane;whiteSpace=wrap" parent="1" vertex="1">
          <mxGeometry x="444.5" y="128" width="280" height="570" as="geometry" />
        </mxCell>
        <mxCell id="NbnD6St_1m8ua01pVDvT-78" value="require Config for User&#39;s Homescreen" style="rounded=1;whiteSpace=wrap;html=1;arcSize=40;fontColor=#000000;fillColor=#ffffc0;strokeColor=#ff0000;" parent="3" vertex="1">
          <mxGeometry x="75.5" y="152" width="120" height="40" as="geometry" />
        </mxCell>
        <mxCell id="NbnD6St_1m8ua01pVDvT-79" value="" style="edgeStyle=orthogonalEdgeStyle;html=1;verticalAlign=bottom;endArrow=open;endSize=8;strokeColor=#ff0000;rounded=0;entryX=0.5;entryY=0;entryDx=0;entryDy=0;" parent="3" source="NbnD6St_1m8ua01pVDvT-78" target="NbnD6St_1m8ua01pVDvT-82" edge="1">
          <mxGeometry relative="1" as="geometry">
            <mxPoint x="235.5" y="222" as="targetPoint" />
          </mxGeometry>
        </mxCell>
        <mxCell id="NbnD6St_1m8ua01pVDvT-82" value="Custom Config found" style="rhombus;whiteSpace=wrap;html=1;fillColor=#ffffc0;strokeColor=#ff0000;" parent="3" vertex="1">
          <mxGeometry x="95.5" y="222" width="80" height="45" as="geometry" />
        </mxCell>
        <mxCell id="NbnD6St_1m8ua01pVDvT-90" value="Render Screen arcording to Config" style="rounded=1;whiteSpace=wrap;html=1;arcSize=40;fontColor=#000000;fillColor=#ffffc0;strokeColor=#ff0000;" parent="3" vertex="1">
          <mxGeometry x="75.5" y="352" width="120" height="40" as="geometry" />
        </mxCell>
        <mxCell id="NbnD6St_1m8ua01pVDvT-96" value="show redered Homescreen" style="rounded=1;whiteSpace=wrap;html=1;arcSize=40;fontColor=#000000;fillColor=#ffffc0;strokeColor=#ff0000;" parent="3" vertex="1">
          <mxGeometry x="75.5" y="432" width="120" height="40" as="geometry" />
        </mxCell>
        <mxCell id="NbnD6St_1m8ua01pVDvT-98" value="" style="ellipse;html=1;shape=endState;fillColor=#000000;strokeColor=#ff0000;" parent="3" vertex="1">
          <mxGeometry x="120.5" y="532" width="30" height="30" as="geometry" />
        </mxCell>
        <mxCell id="NbnD6St_1m8ua01pVDvT-97" value="" style="edgeStyle=orthogonalEdgeStyle;html=1;verticalAlign=bottom;endArrow=open;endSize=8;strokeColor=#ff0000;rounded=0;" parent="3" source="NbnD6St_1m8ua01pVDvT-96" target="NbnD6St_1m8ua01pVDvT-98" edge="1">
          <mxGeometry relative="1" as="geometry">
            <mxPoint x="135.5" y="512" as="targetPoint" />
          </mxGeometry>
        </mxCell>
        <mxCell id="39" value="" style="endArrow=open;strokeColor=#FF0000;endFill=1;rounded=0;exitX=0.5;exitY=1;exitDx=0;exitDy=0;" parent="3" source="NbnD6St_1m8ua01pVDvT-90" target="NbnD6St_1m8ua01pVDvT-96" edge="1">
          <mxGeometry relative="1" as="geometry">
            <mxPoint x="425" y="455" as="sourcePoint" />
          </mxGeometry>
        </mxCell>
        <mxCell id="4" value="Database" style="swimlane;whiteSpace=wrap" parent="1" vertex="1">
          <mxGeometry x="724.5" y="128" width="280" height="570" as="geometry" />
        </mxCell>
        <mxCell id="NbnD6St_1m8ua01pVDvT-88" value="Return User&#39;s Config" style="rounded=1;whiteSpace=wrap;html=1;arcSize=40;fontColor=#000000;fillColor=#ffffc0;strokeColor=#ff0000;" parent="4" vertex="1">
          <mxGeometry x="145.5" y="267" width="120" height="40" as="geometry" />
        </mxCell>
        <mxCell id="NbnD6St_1m8ua01pVDvT-91" value="Return standard Config" style="rounded=1;whiteSpace=wrap;html=1;arcSize=40;fontColor=#000000;fillColor=#ffffc0;strokeColor=#ff0000;" parent="4" vertex="1">
          <mxGeometry x="30" y="312" width="115.5" height="38" as="geometry" />
        </mxCell>
        <mxCell id="NbnD6St_1m8ua01pVDvT-77" value="" style="edgeStyle=orthogonalEdgeStyle;html=1;verticalAlign=bottom;endArrow=open;endSize=8;strokeColor=#ff0000;rounded=0;entryX=0.5;entryY=0;entryDx=0;entryDy=0;" parent="1" source="NbnD6St_1m8ua01pVDvT-76" target="NbnD6St_1m8ua01pVDvT-78" edge="1">
          <mxGeometry relative="1" as="geometry">
            <mxPoint x="600" y="270" as="targetPoint" />
          </mxGeometry>
        </mxCell>
        <mxCell id="NbnD6St_1m8ua01pVDvT-83" value="no" style="edgeStyle=orthogonalEdgeStyle;html=1;align=left;verticalAlign=bottom;endArrow=open;endSize=8;strokeColor=#ff0000;rounded=0;" parent="1" source="NbnD6St_1m8ua01pVDvT-82" target="NbnD6St_1m8ua01pVDvT-91" edge="1">
          <mxGeometry x="-0.52" y="6" relative="1" as="geometry">
            <mxPoint x="620" y="510" as="targetPoint" />
            <Array as="points">
              <mxPoint x="585" y="420" />
              <mxPoint x="812" y="420" />
            </Array>
            <mxPoint as="offset" />
          </mxGeometry>
        </mxCell>
        <mxCell id="NbnD6St_1m8ua01pVDvT-84" value="yes" style="edgeStyle=orthogonalEdgeStyle;html=1;align=left;verticalAlign=top;endArrow=open;endSize=8;strokeColor=#ff0000;rounded=0;entryX=0.5;entryY=0;entryDx=0;entryDy=0;" parent="1" source="NbnD6St_1m8ua01pVDvT-82" target="NbnD6St_1m8ua01pVDvT-88" edge="1">
          <mxGeometry x="-0.8433" y="3" relative="1" as="geometry">
            <mxPoint x="530" y="470" as="targetPoint" />
            <mxPoint as="offset" />
          </mxGeometry>
        </mxCell>
        <mxCell id="NbnD6St_1m8ua01pVDvT-89" value="" style="edgeStyle=orthogonalEdgeStyle;html=1;verticalAlign=bottom;endArrow=open;endSize=8;strokeColor=#ff0000;rounded=0;" parent="1" source="NbnD6St_1m8ua01pVDvT-88" target="NbnD6St_1m8ua01pVDvT-90" edge="1">
          <mxGeometry relative="1" as="geometry">
            <mxPoint x="840" y="500" as="targetPoint" />
            <Array as="points">
              <mxPoint x="950" y="510" />
            </Array>
          </mxGeometry>
        </mxCell>
        <mxCell id="NbnD6St_1m8ua01pVDvT-92" value="" style="edgeStyle=orthogonalEdgeStyle;html=1;verticalAlign=bottom;endArrow=open;endSize=8;strokeColor=#ff0000;rounded=0;entryX=1;entryY=0.25;entryDx=0;entryDy=0;" parent="1" source="NbnD6St_1m8ua01pVDvT-91" target="NbnD6St_1m8ua01pVDvT-90" edge="1">
          <mxGeometry relative="1" as="geometry">
            <mxPoint x="750" y="550" as="targetPoint" />
          </mxGeometry>
        </mxCell>
      </root>
    </mxGraphModel>
  </diagram>
</mxfile>
